<?xml version="1.0" encoding="utf-8"?>
<!-- Generator: Adobe Illustrator 18.1.0, SVG Export Plug-In . SVG Version: 6.00 Build 0)  -->
<!DOCTYPE svg PUBLIC "-//W3C//DTD SVG 1.1//EN" "http://www.w3.org/Graphics/SVG/1.1/DTD/svg11.dtd">
<svg version="1.1" id="Layer_1" xmlns="http://www.w3.org/2000/svg" xmlns:xlink="http://www.w3.org/1999/xlink" x="0px" y="0px"
	 viewBox="0 0 289.4 44.9" enable-background="new 0 0 289.4 44.9" xml:space="preserve">
<g>
	<g>
		<path fill="#0091BF" d="M289.4,13.3c0,1.2-1,2.2-2.2,2.2c-1.2,0-2.2-1-2.2-2.2c0-1.2,1-2.2,2.2-2.2
			C288.5,11.1,289.4,12.1,289.4,13.3"/>
	</g>
</g>
<path fill="#5E5F61" d="M5.7,7.5h0.8v5.8h6v1.3h-6v11.1c0,1.2,0.3,2,0.8,2.7c0.5,0.6,1.3,0.9,2.3,0.9c1.2,0,2.2-0.6,3.2-1.7l0.5,0.6
	c-1.5,1.9-3.2,2.9-5.2,2.9c-1.5,0-2.7-0.5-3.6-1.4c-0.9-0.9-1.4-2.1-1.4-3.6V14.5H0v-0.8C2.4,12.5,4.3,10.4,5.7,7.5z"/>
<path fill="#5E5F61" d="M26.9,26.9v-8.5c0-1.1-0.3-2-0.9-2.7c-0.6-0.7-1.5-1-2.5-1c-1,0-1.8,0.2-2.6,0.7c-0.8,0.5-1.6,1.3-2.4,2.5
	v9.4c0,0.9,0.2,1.5,0.6,1.8s1.2,0.5,2.3,0.5v0.8H12v-0.8c1.3,0,2.1-0.2,2.5-0.6c0.4-0.4,0.5-1.3,0.5-2.7V4c0-1-0.2-1.7-0.6-2.1
	c-0.4-0.3-1.2-0.5-2.5-0.5V0.6L17.6,0h0.8v16.3c1.1-1.3,2.1-2.2,3-2.7c0.9-0.5,1.9-0.8,3-0.8c1.7,0,3.1,0.5,4.1,1.6
	c1.1,1.1,1.6,2.5,1.6,4.3v7.6c0,1.3,0.2,2.2,0.5,2.7c0.4,0.4,1.1,0.6,2.2,0.6v0.8H24v-0.8c1.2,0,1.9-0.2,2.3-0.5
	C26.7,28.8,26.9,28,26.9,26.9z"/>
<path fill="#5E5F61" d="M227.1,13.3v0.8c-1.2,0-1.8,0.4-1.8,1c0,0.3,0.1,0.8,0.4,1.5l3.9,9.6l4-10.4c-0.4-0.7-0.7-1.2-1-1.4
	c-0.3-0.2-0.8-0.4-1.5-0.4v-0.8h8.3v0.8c-1.5,0-2.2,0.5-2.2,1.4c0,0.3,0.1,0.7,0.3,1.1l3.8,9.7l3.6-9c0.3-0.7,0.4-1.3,0.4-1.7
	c0-0.9-0.7-1.4-2.2-1.4v-0.8h6.7v0.8c-1.2,0-2,0.2-2.5,0.6c-0.5,0.4-1,1.2-1.5,2.6l-5.4,13.6h-0.8l-5.5-13.6l-5.4,13.6h-0.8
	l-6.1-14.8c-0.5-1.3-1.6-1.9-3.2-1.9v-0.8H227.1z"/>
<path fill="#5E5F61" d="M254.8,31c-1.3,0-2.5-0.4-3.5-1.3c-1-0.9-1.4-2-1.4-3.2c0-1.2,0.4-2.2,1.2-3c0.8-0.8,2.5-1.5,5.1-2.2
	c1.6-0.4,2.7-0.8,3.2-1.1v-1.3c0-1.2-0.3-2.3-1-3c-0.7-0.8-1.6-1.1-2.8-1.1c-1.1,0-2,0.3-2.8,1c-0.8,0.7-1.4,1.6-1.7,2.7l-0.9-0.2
	c0.3-1.6,1.1-2.9,2.3-3.8s2.5-1.4,4.1-1.4c1.8,0,3.3,0.6,4.5,1.7c1.1,1.1,1.7,2.7,1.7,4.6v7.4c0,1,0.1,1.8,0.2,2.1
	c0.1,0.4,0.4,0.6,0.8,0.6c0.3,0,0.5-0.1,0.6-0.3c0.2-0.2,0.3-0.7,0.5-1.3h0.8c-0.1,1.1-0.4,1.9-1,2.6c-0.6,0.6-1.4,0.9-2.3,0.9
	c-1.4,0-2.4-0.8-2.9-2.4c-0.9,0.9-1.6,1.6-2.3,1.9C256.5,30.9,255.7,31,254.8,31z M259.5,27v-5.8c-0.5,0.2-1.2,0.5-2.1,0.8
	c-1.7,0.6-2.8,1.2-3.3,1.7c-0.5,0.6-0.7,1.4-0.7,2.3c0,0.9,0.3,1.6,0.8,2.2c0.5,0.6,1.1,0.9,1.8,0.9c0.6,0,1.3-0.2,2-0.6
	C258.7,28.1,259.2,27.6,259.5,27z"/>
<path fill="#5E5F61" d="M272.1,13.3v0.8c-1,0.1-1.5,0.6-1.5,1.5c0,0.3,0.1,0.7,0.3,1.1l4.1,9.7l3-9.1c0.2-0.7,0.4-1.3,0.4-1.8
	c0-0.9-0.6-1.4-1.7-1.5v-0.8h6.1v0.8c-0.9,0-1.7,0.3-2.3,0.9c-0.6,0.6-1.1,1.7-1.6,3.1L272,38.5c-0.7,1.9-1.5,3.5-2.5,4.6
	c-1,1.1-2.1,1.7-3.2,1.7c-0.6,0-1.3-0.2-2.1-0.7l1.1-3c0.6,0.3,1.2,0.4,1.7,0.4c1,0,1.9-0.3,2.6-1c0.7-0.6,1.3-1.7,1.8-3.2l2.2-6.2
	l-6.2-14.2c-0.5-1-0.9-1.7-1.4-2.1c-0.5-0.3-1.2-0.5-2.1-0.5v-0.8H272.1z"/>
<path fill="#0091BF" d="M214.2,18.5H214l0-0.2c-0.3-2.7-2.1-4-4-4c-1.6,0-2.6,0.8-2.6,2.1c0,1.9,2,2.7,4.3,3.8
	c2.2,1,4.5,2.4,4.5,5.6c0,2.9-2.5,5.4-5.5,5.4c-1.9,0-3.6-1.3-4.3-1.2c-0.5,0-0.8,0.4-0.9,0.9l0,0.2h-0.2h-1v-6.1h0.2h1l0,0.2
	c0.7,3.4,3.2,4.7,5.2,4.7c1.5,0,2.7-1.1,2.7-2.7c0-2.2-2.1-3-4.3-4c-2.2-1-4.6-2.1-4.6-5.1c0-2.7,2.4-5,5.3-5c1.8,0,2.4,0.8,3.4,0.8
	c0.3,0,0.6-0.1,0.8-0.7l0.1-0.1h0.1h1v5.6h-0.2H214.2z"/>
<path fill="#0091BF" d="M138.5,13.1c-0.6,0-1.4,0-2.2-0.1c-0.8-0.1-1.6-0.1-2.2-0.1c-4.2,0-7.3,3.1-7.3,7.2c0,3.1,1.8,5.4,4.9,6.4
	c-3.1,1.2-4.8,2.6-4.8,4.6c0,1.5,1.3,2.6,3.3,3.2c-3.9,1.7-5.1,3.4-5.1,5.3c0,3.3,3.5,5.3,8.4,5.3c5.8,0,10.5-3.1,10.5-7.2
	c0-1.2-0.4-2.1-1.4-3.1c-2.5-2.4-11.4-2.5-12.5-3.9c-0.2-0.3-0.3-0.3-0.3-0.8c0-0.8,2.7-2.8,5.2-2.9c3.6-0.2,6.4-3.4,6.5-6.8
	c0-1.5-0.5-3.1-1.7-4.7h4.2v-2.3H138.5z M132.2,34.9c8,1.4,9.7,2.4,9.6,4.2c0,2-2.4,3.5-6.1,3.5c-4.8,0-8.2-1.8-8.2-4
	C127.5,37.1,129.2,35.7,132.2,34.9 M134.1,25.6c-2.3,0-3.9-2.3-3.9-5.9c0-3.4,1.6-5.5,4-5.5c2.3,0,3.9,2.2,3.9,5.5
	C138.1,23.6,136.4,25.6,134.1,25.6"/>
<path fill="#0091BF" d="M82.9,30.5v-0.2v-1h0.2c2.3-0.1,2.6-0.4,2.7-1.9v-8.8c0-2.6-1.8-3.6-3.5-3.6c-1.5,0-2.9,1-4.6,3.1v8.1
	c0.1,2.6,0.2,2.9,2.6,3h0.2v0.2v1h-9.3v-0.2v-1h0.2c2.2-0.1,2.5,0,2.6-3v-9.4c-0.1-2-0.3-2.2-2.6-2.3h-0.2v-0.2v-1l5.4-0.5h1v3
	c1.9-2,3.8-3,5.9-3c2.9,0,5.9,2.1,5.9,6.2v7.6c0.1,2.2,0.3,2.6,2.6,2.6h0.2v0.2v1H82.9z"/>
<path fill="#0091BF" d="M108.8,25.9c-2.4,2.7-3.5,3.4-5.8,3.4c-2.2,0-6.5-1.7-6.5-9v0h12.3l0-0.2c0-0.1,0-0.2,0-0.4
	c0-3.9-3.6-6.9-7.5-6.9c-4.9,0-8.6,4.1-8.6,9.3c0,5.2,3.9,8.9,9.3,8.9h0c3,0,5-1.1,7-3.7l0-0.1v-1.8L108.8,25.9z M101,14.3
	c2,0,4.3,1.3,4.3,4.7c0,0,0,0.1,0,0.1h-8.7C96.9,16.1,98.4,14.3,101,14.3"/>
<path fill="#0091BF" d="M69.1,25.9c-2.4,2.7-3.5,3.4-5.8,3.4c-2.2,0-6.5-1.7-6.5-9v0h12.3l0-0.2c0-0.1,0-0.2,0-0.4
	c0-3.9-3.6-6.9-7.5-6.9c-4.9,0-8.6,4.1-8.6,9.3c0,5.2,3.9,8.9,9.3,8.9h0c3,0,5-1.1,7-3.7l0-0.1v-1.8L69.1,25.9z M61.3,14.3
	c2,0,4.3,1.3,4.3,4.7c0,0,0,0.1,0,0.1h-8.7C57.1,16.1,58.7,14.3,61.3,14.3"/>
<path fill="#5E5F61" d="M49.5,25.9c-2.4,2.7-3.5,3.4-5.8,3.4c-2.2,0-6.5-1.7-6.5-9v0h12.3l0-0.2c0-0.1,0-0.2,0-0.4
	c0-3.9-3.6-6.9-7.5-6.9c-4.9,0-8.6,4.1-8.6,9.3c0,5.2,3.9,8.9,9.3,8.9h0c3,0,5-1.1,7-3.7l0-0.1v-1.8L49.5,25.9z M41.7,14.3
	c2,0,4.3,1.3,4.3,4.7c0,0,0,0.1,0,0.1h-8.7C37.6,16.1,39.1,14.3,41.7,14.3"/>
<path fill="#0091BF" d="M110.6,30.5v-0.2v-1h0.2c2.5-0.1,2.6-0.4,2.6-3v-9.1c-0.1-2.4-0.4-2.5-3.3-2.5h-0.2v-0.2v-1l6.1-0.5h1v3.4
	c2.9-2.5,4.3-3.4,5.5-3.4c1,0,2.3,0.6,3.2,1.4l0.1,0.1l-1.4,3.3l-0.2-0.1c-1.4-0.8-2.8-1.4-3.9-1.4c-1,0-1.9,0.5-3.3,1.9v9.1
	c0.1,1.8,0.4,2.1,2.6,2.2h0.2v0.2v1H110.6z"/>
<path fill="#0091BF" d="M160.5,25.9c-2.4,2.7-3.5,3.4-5.8,3.4c-2.2,0-6.5-1.7-6.5-9v0h12.3l0-0.2c0-0.1,0-0.2,0-0.4
	c0-3.9-3.6-6.9-7.5-6.9c-4.9,0-8.6,4.1-8.6,9.3c0,5.2,3.9,8.9,9.3,8.9h0c3,0,5-1.1,7-3.7l0-0.1v-1.8L160.5,25.9z M152.7,14.3
	c2,0,4.3,1.3,4.3,4.7v0.1h-8.7C148.6,16.1,150.1,14.3,152.7,14.3"/>
<path fill="#0091BF" d="M164.6,26v-11h-3.2v-0.2v-0.9l0.1-0.1c2.2-1.1,4.1-3.1,5.5-6l0.1-0.1h0.1h1v5.6h5.8v0.2v1.4h-5.8v10.6
	c0,2.3,1.1,3.3,2.8,3.3c1.2,0,2-0.4,3-1.5l0.2-0.2l0.2,0.2l0.6,0.7l-0.1,0.1c-1.5,1.9-3.3,2.9-5.2,2.9C166.7,31,164.6,29,164.6,26"
	/>
<path fill="#0091BF" d="M176,30.5v-0.2v-1h0.2c2.6-0.1,2.9-0.2,3-2.1V16.9c-0.1-2.2-0.5-2.2-3-2.3H176v-0.2v-1l5.8-0.5h1v14.3
	c0.1,1.6,0.2,2,2.6,2.1h0.2v0.2v1H176z"/>
<path fill="#0091BF" d="M195.1,31.1c-5.1,0-8.6-3.6-8.6-8.7c0-5.3,4-9.5,8.9-9.5c2.6,0,4,1,4.7,1c0.3,0,0.7-0.3,0.9-0.8l0.1-0.1h0.1
	h1V19v0.2H202h-1l0-0.2c-0.7-3-2.7-4.8-5.4-4.8c-3.2,0-5.4,2.7-5.4,6.8c0,4.5,2.8,8.2,6.1,8.2c2,0,4.4-1.1,6.1-3.4l0.4-0.5v0.6v1.3
	l0,0.1C200.8,29.8,198.2,31.1,195.1,31.1L195.1,31.1z"/>
<path fill="#0091BF" d="M177.9,8.7c0-1.3,1-2.2,2.3-2.2c1.3,0,2.2,1,2.2,2.2c0,1.2-1,2.3-2.2,2.3C178.9,11,177.9,10,177.9,8.7"/>
</svg>
